<mxfile host="Electron" modified="2023-05-22T10:36:30.189Z" agent="Mozilla/5.0 (X11; Linux x86_64) AppleWebKit/537.36 (KHTML, like Gecko) draw.io/21.2.8 Chrome/112.0.5615.165 Electron/24.2.0 Safari/537.36" etag="SonMfQz4QeIhajN7eGNs" version="21.2.8" type="device">
  <diagram name="Page-1" id="4Aah7TVW3mhizXnvqQwW">
    <mxGraphModel dx="880" dy="526" grid="1" gridSize="10" guides="1" tooltips="1" connect="1" arrows="1" fold="1" page="1" pageScale="1" pageWidth="850" pageHeight="1100" math="0" shadow="0">
      <root>
        <mxCell id="0" />
        <mxCell id="1" parent="0" />
        <mxCell id="E__VWcDHF8cWpaPQWQcF-9" value="" style="group" parent="1" vertex="1" connectable="0">
          <mxGeometry x="70" y="76" width="110" height="80" as="geometry" />
        </mxCell>
        <mxCell id="E__VWcDHF8cWpaPQWQcF-8" value="" style="html=1;dashed=0;whiteSpace=wrap;" parent="E__VWcDHF8cWpaPQWQcF-9" vertex="1">
          <mxGeometry width="100" height="50" as="geometry" />
        </mxCell>
        <mxCell id="E__VWcDHF8cWpaPQWQcF-4" value="Collezionista" style="text;html=1;strokeColor=none;fillColor=none;align=center;verticalAlign=middle;whiteSpace=wrap;rounded=0;fontStyle=1;fontSize=14;" parent="E__VWcDHF8cWpaPQWQcF-9" vertex="1">
          <mxGeometry x="20" y="10" width="60" height="30" as="geometry" />
        </mxCell>
        <mxCell id="E__VWcDHF8cWpaPQWQcF-14" value="nickname" style="ellipse;whiteSpace=wrap;html=1;align=center;fontStyle=4;" parent="1" vertex="1">
          <mxGeometry x="145" y="151" width="100" height="40" as="geometry" />
        </mxCell>
        <mxCell id="E__VWcDHF8cWpaPQWQcF-16" value="" style="endArrow=none;html=1;rounded=0;entryX=0.5;entryY=0;entryDx=0;entryDy=0;exitX=0.75;exitY=1;exitDx=0;exitDy=0;" parent="1" source="E__VWcDHF8cWpaPQWQcF-8" target="E__VWcDHF8cWpaPQWQcF-14" edge="1">
          <mxGeometry relative="1" as="geometry">
            <mxPoint x="130" y="141" as="sourcePoint" />
            <mxPoint x="100" y="241" as="targetPoint" />
          </mxGeometry>
        </mxCell>
        <mxCell id="E__VWcDHF8cWpaPQWQcF-18" value="&lt;u&gt;email&lt;/u&gt;" style="ellipse;whiteSpace=wrap;html=1;align=center;" parent="1" vertex="1">
          <mxGeometry y="151" width="100" height="40" as="geometry" />
        </mxCell>
        <mxCell id="E__VWcDHF8cWpaPQWQcF-19" value="" style="endArrow=none;html=1;rounded=0;entryX=0.5;entryY=0;entryDx=0;entryDy=0;exitX=0.25;exitY=1;exitDx=0;exitDy=0;" parent="1" source="E__VWcDHF8cWpaPQWQcF-8" target="E__VWcDHF8cWpaPQWQcF-18" edge="1">
          <mxGeometry relative="1" as="geometry">
            <mxPoint x="200" y="106" as="sourcePoint" />
            <mxPoint x="205" y="171" as="targetPoint" />
          </mxGeometry>
        </mxCell>
        <mxCell id="E__VWcDHF8cWpaPQWQcF-24" value="&lt;u&gt;nome&lt;/u&gt;" style="ellipse;whiteSpace=wrap;html=1;align=center;" parent="1" vertex="1">
          <mxGeometry x="630" y="25" width="100" height="40" as="geometry" />
        </mxCell>
        <mxCell id="E__VWcDHF8cWpaPQWQcF-25" value="" style="endArrow=none;html=1;rounded=0;entryX=0.5;entryY=0;entryDx=0;entryDy=0;exitX=0.5;exitY=1;exitDx=0;exitDy=0;" parent="1" source="E__VWcDHF8cWpaPQWQcF-24" edge="1">
          <mxGeometry relative="1" as="geometry">
            <mxPoint x="800" y="115" as="sourcePoint" />
            <mxPoint x="640" y="105" as="targetPoint" />
          </mxGeometry>
        </mxCell>
        <mxCell id="E__VWcDHF8cWpaPQWQcF-26" value="stato" style="ellipse;whiteSpace=wrap;html=1;align=center;" parent="1" vertex="1">
          <mxGeometry x="440" y="370" width="100" height="40" as="geometry" />
        </mxCell>
        <mxCell id="E__VWcDHF8cWpaPQWQcF-27" value="anno" style="ellipse;whiteSpace=wrap;html=1;align=center;" parent="1" vertex="1">
          <mxGeometry x="680" y="370" width="100" height="40" as="geometry" />
        </mxCell>
        <mxCell id="E__VWcDHF8cWpaPQWQcF-28" value="genere" style="ellipse;whiteSpace=wrap;html=1;align=center;" parent="1" vertex="1">
          <mxGeometry x="320" y="260" width="100" height="40" as="geometry" />
        </mxCell>
        <mxCell id="E__VWcDHF8cWpaPQWQcF-30" value="&lt;u&gt;titolo&lt;/u&gt;" style="ellipse;whiteSpace=wrap;html=1;align=center;" parent="1" vertex="1">
          <mxGeometry x="410" y="235" width="100" height="40" as="geometry" />
        </mxCell>
        <mxCell id="E__VWcDHF8cWpaPQWQcF-31" value="formato" style="ellipse;whiteSpace=wrap;html=1;align=center;" parent="1" vertex="1">
          <mxGeometry x="660" y="320" width="100" height="40" as="geometry" />
        </mxCell>
        <mxCell id="E__VWcDHF8cWpaPQWQcF-32" value="barcode" style="ellipse;whiteSpace=wrap;html=1;align=center;" parent="1" vertex="1">
          <mxGeometry x="540" y="250" width="100" height="40" as="geometry" />
        </mxCell>
        <mxCell id="E__VWcDHF8cWpaPQWQcF-34" value="" style="group" parent="1" vertex="1" connectable="0">
          <mxGeometry x="540" y="570" width="100" height="50" as="geometry" />
        </mxCell>
        <mxCell id="E__VWcDHF8cWpaPQWQcF-35" value="" style="html=1;dashed=0;whiteSpace=wrap;" parent="E__VWcDHF8cWpaPQWQcF-34" vertex="1">
          <mxGeometry width="100" height="50" as="geometry" />
        </mxCell>
        <mxCell id="E__VWcDHF8cWpaPQWQcF-36" value="Traccia" style="text;html=1;strokeColor=none;fillColor=none;align=center;verticalAlign=middle;whiteSpace=wrap;rounded=0;fontStyle=1;fontSize=14;" parent="E__VWcDHF8cWpaPQWQcF-34" vertex="1">
          <mxGeometry x="20" y="10" width="60" height="30" as="geometry" />
        </mxCell>
        <mxCell id="E__VWcDHF8cWpaPQWQcF-37" value="titolo" style="ellipse;whiteSpace=wrap;html=1;align=center;" parent="1" vertex="1">
          <mxGeometry x="635" y="660" width="100" height="40" as="geometry" />
        </mxCell>
        <mxCell id="E__VWcDHF8cWpaPQWQcF-39" value="durata" style="ellipse;whiteSpace=wrap;html=1;align=center;" parent="1" vertex="1">
          <mxGeometry x="450" y="660" width="100" height="40" as="geometry" />
        </mxCell>
        <mxCell id="E__VWcDHF8cWpaPQWQcF-49" value="visibilitÃ " style="ellipse;whiteSpace=wrap;html=1;align=center;" parent="1" vertex="1">
          <mxGeometry x="730" y="105" width="100" height="40" as="geometry" />
        </mxCell>
        <mxCell id="3cUHEKkpjPZS7k_F1PP2-15" value="" style="endArrow=none;html=1;rounded=0;entryX=1;entryY=0.5;entryDx=0;entryDy=0;exitX=0;exitY=0.5;exitDx=0;exitDy=0;" parent="1" target="E__VWcDHF8cWpaPQWQcF-8" edge="1">
          <mxGeometry relative="1" as="geometry">
            <mxPoint x="350" y="72.5" as="sourcePoint" />
            <mxPoint x="410" y="190" as="targetPoint" />
          </mxGeometry>
        </mxCell>
        <mxCell id="3cUHEKkpjPZS7k_F1PP2-17" value="(0, n)" style="text;html=1;strokeColor=none;fillColor=none;align=center;verticalAlign=middle;whiteSpace=wrap;rounded=0;" parent="1" vertex="1">
          <mxGeometry x="180" y="86" width="30" height="10" as="geometry" />
        </mxCell>
        <mxCell id="3cUHEKkpjPZS7k_F1PP2-18" value="" style="endArrow=none;html=1;rounded=0;entryX=0;entryY=0.5;entryDx=0;entryDy=0;exitX=1;exitY=0.5;exitDx=0;exitDy=0;" parent="1" edge="1">
          <mxGeometry relative="1" as="geometry">
            <mxPoint x="470" y="72.5" as="sourcePoint" />
            <mxPoint x="590" y="130" as="targetPoint" />
          </mxGeometry>
        </mxCell>
        <mxCell id="3cUHEKkpjPZS7k_F1PP2-19" value="(1, 1)" style="text;html=1;strokeColor=none;fillColor=none;align=center;verticalAlign=middle;whiteSpace=wrap;rounded=0;" parent="1" vertex="1">
          <mxGeometry x="560" y="100" width="30" height="15" as="geometry" />
        </mxCell>
        <mxCell id="3cUHEKkpjPZS7k_F1PP2-26" value="" style="group" parent="1" vertex="1" connectable="0">
          <mxGeometry x="110" y="315" width="100" height="50" as="geometry" />
        </mxCell>
        <mxCell id="3cUHEKkpjPZS7k_F1PP2-24" value="" style="html=1;dashed=0;whiteSpace=wrap;" parent="3cUHEKkpjPZS7k_F1PP2-26" vertex="1">
          <mxGeometry width="100" height="50" as="geometry" />
        </mxCell>
        <mxCell id="3cUHEKkpjPZS7k_F1PP2-25" value="&lt;b&gt;&lt;font style=&quot;font-size: 14px;&quot;&gt;Artista&lt;/font&gt;&lt;/b&gt;" style="text;html=1;strokeColor=none;fillColor=none;align=center;verticalAlign=middle;whiteSpace=wrap;rounded=0;" parent="3cUHEKkpjPZS7k_F1PP2-26" vertex="1">
          <mxGeometry x="20" y="10" width="60" height="30" as="geometry" />
        </mxCell>
        <mxCell id="3cUHEKkpjPZS7k_F1PP2-28" value="" style="group" parent="1" vertex="1" connectable="0">
          <mxGeometry x="170" y="395" width="100" height="50" as="geometry" />
        </mxCell>
        <mxCell id="3cUHEKkpjPZS7k_F1PP2-29" value="" style="html=1;dashed=0;whiteSpace=wrap;" parent="3cUHEKkpjPZS7k_F1PP2-28" vertex="1">
          <mxGeometry width="100" height="50" as="geometry" />
        </mxCell>
        <mxCell id="3cUHEKkpjPZS7k_F1PP2-30" value="&lt;b&gt;&lt;font style=&quot;font-size: 14px;&quot;&gt;Compositore&lt;/font&gt;&lt;/b&gt;" style="text;html=1;strokeColor=none;fillColor=none;align=center;verticalAlign=middle;whiteSpace=wrap;rounded=0;" parent="3cUHEKkpjPZS7k_F1PP2-28" vertex="1">
          <mxGeometry x="20" y="10" width="60" height="30" as="geometry" />
        </mxCell>
        <mxCell id="3cUHEKkpjPZS7k_F1PP2-31" value="" style="group" parent="1" vertex="1" connectable="0">
          <mxGeometry x="50" y="395" width="100" height="50" as="geometry" />
        </mxCell>
        <mxCell id="3cUHEKkpjPZS7k_F1PP2-32" value="" style="html=1;dashed=0;whiteSpace=wrap;" parent="3cUHEKkpjPZS7k_F1PP2-31" vertex="1">
          <mxGeometry width="100" height="50" as="geometry" />
        </mxCell>
        <mxCell id="3cUHEKkpjPZS7k_F1PP2-33" value="&lt;b&gt;&lt;font style=&quot;font-size: 14px;&quot;&gt;Esecutore&lt;br&gt;&lt;/font&gt;&lt;/b&gt;" style="text;html=1;strokeColor=none;fillColor=none;align=center;verticalAlign=middle;whiteSpace=wrap;rounded=0;" parent="3cUHEKkpjPZS7k_F1PP2-31" vertex="1">
          <mxGeometry x="20" y="10" width="60" height="30" as="geometry" />
        </mxCell>
        <mxCell id="3cUHEKkpjPZS7k_F1PP2-42" value="" style="endArrow=none;html=1;rounded=0;entryX=0.5;entryY=0;entryDx=0;entryDy=0;exitX=0.5;exitY=1;exitDx=0;exitDy=0;" parent="1" source="3cUHEKkpjPZS7k_F1PP2-48" target="3cUHEKkpjPZS7k_F1PP2-24" edge="1">
          <mxGeometry relative="1" as="geometry">
            <mxPoint x="650" y="240" as="sourcePoint" />
            <mxPoint x="610" y="280" as="targetPoint" />
          </mxGeometry>
        </mxCell>
        <mxCell id="3cUHEKkpjPZS7k_F1PP2-43" value="" style="endArrow=none;html=1;rounded=0;entryX=0.5;entryY=0;entryDx=0;entryDy=0;exitX=0.5;exitY=1;exitDx=0;exitDy=0;" parent="1" source="E__VWcDHF8cWpaPQWQcF-32" edge="1">
          <mxGeometry relative="1" as="geometry">
            <mxPoint x="700" y="250" as="sourcePoint" />
            <mxPoint x="590" y="315" as="targetPoint" />
          </mxGeometry>
        </mxCell>
        <mxCell id="3cUHEKkpjPZS7k_F1PP2-44" value="" style="endArrow=none;html=1;rounded=0;entryX=1;entryY=1;entryDx=0;entryDy=0;exitX=0.25;exitY=0;exitDx=0;exitDy=0;" parent="1" target="E__VWcDHF8cWpaPQWQcF-30" edge="1">
          <mxGeometry relative="1" as="geometry">
            <mxPoint x="565" y="315" as="sourcePoint" />
            <mxPoint x="680" y="290" as="targetPoint" />
          </mxGeometry>
        </mxCell>
        <mxCell id="3cUHEKkpjPZS7k_F1PP2-45" value="" style="endArrow=none;html=1;rounded=0;entryX=1;entryY=0.5;entryDx=0;entryDy=0;exitX=0;exitY=0.5;exitDx=0;exitDy=0;" parent="1" source="E__VWcDHF8cWpaPQWQcF-31" edge="1">
          <mxGeometry relative="1" as="geometry">
            <mxPoint x="750" y="260" as="sourcePoint" />
            <mxPoint x="640" y="340" as="targetPoint" />
          </mxGeometry>
        </mxCell>
        <mxCell id="3cUHEKkpjPZS7k_F1PP2-48" value="nome" style="ellipse;whiteSpace=wrap;html=1;align=center;fontStyle=4;" parent="1" vertex="1">
          <mxGeometry x="110" y="270" width="100" height="40" as="geometry" />
        </mxCell>
        <mxCell id="3cUHEKkpjPZS7k_F1PP2-50" value="" style="edgeStyle=segmentEdgeStyle;endArrow=classic;html=1;curved=0;rounded=0;endSize=8;startSize=8;exitX=0.5;exitY=0;exitDx=0;exitDy=0;entryX=0.25;entryY=1;entryDx=0;entryDy=0;" parent="1" source="3cUHEKkpjPZS7k_F1PP2-32" target="3cUHEKkpjPZS7k_F1PP2-24" edge="1">
          <mxGeometry width="50" height="50" relative="1" as="geometry">
            <mxPoint x="500" y="410" as="sourcePoint" />
            <mxPoint x="550" y="360" as="targetPoint" />
            <Array as="points">
              <mxPoint x="100" y="390" />
              <mxPoint x="135" y="390" />
            </Array>
          </mxGeometry>
        </mxCell>
        <mxCell id="3cUHEKkpjPZS7k_F1PP2-51" value="" style="edgeStyle=segmentEdgeStyle;endArrow=classic;html=1;curved=0;rounded=0;endSize=8;startSize=8;exitX=0.5;exitY=0;exitDx=0;exitDy=0;entryX=0.75;entryY=1;entryDx=0;entryDy=0;" parent="1" source="3cUHEKkpjPZS7k_F1PP2-29" target="3cUHEKkpjPZS7k_F1PP2-24" edge="1">
          <mxGeometry width="50" height="50" relative="1" as="geometry">
            <mxPoint x="500" y="410" as="sourcePoint" />
            <mxPoint x="550" y="360" as="targetPoint" />
            <Array as="points">
              <mxPoint x="220" y="390" />
              <mxPoint x="185" y="390" />
            </Array>
          </mxGeometry>
        </mxCell>
        <mxCell id="3cUHEKkpjPZS7k_F1PP2-52" value="" style="endArrow=none;html=1;rounded=0;entryX=1;entryY=0.5;entryDx=0;entryDy=0;exitX=0;exitY=0.5;exitDx=0;exitDy=0;" parent="1" target="E__VWcDHF8cWpaPQWQcF-28" edge="1">
          <mxGeometry relative="1" as="geometry">
            <mxPoint x="540" y="340" as="sourcePoint" />
            <mxPoint x="670" y="428" as="targetPoint" />
          </mxGeometry>
        </mxCell>
        <mxCell id="3cUHEKkpjPZS7k_F1PP2-53" value="" style="endArrow=none;html=1;rounded=0;entryX=0;entryY=0;entryDx=0;entryDy=0;exitX=0.75;exitY=1;exitDx=0;exitDy=0;" parent="1" target="E__VWcDHF8cWpaPQWQcF-27" edge="1">
          <mxGeometry relative="1" as="geometry">
            <mxPoint x="615" y="365" as="sourcePoint" />
            <mxPoint x="590" y="438" as="targetPoint" />
          </mxGeometry>
        </mxCell>
        <mxCell id="3cUHEKkpjPZS7k_F1PP2-54" value="" style="endArrow=none;html=1;rounded=0;entryX=1;entryY=0;entryDx=0;entryDy=0;exitX=0.25;exitY=1;exitDx=0;exitDy=0;" parent="1" target="E__VWcDHF8cWpaPQWQcF-26" edge="1">
          <mxGeometry relative="1" as="geometry">
            <mxPoint x="565" y="365" as="sourcePoint" />
            <mxPoint x="550" y="418" as="targetPoint" />
          </mxGeometry>
        </mxCell>
        <mxCell id="3cUHEKkpjPZS7k_F1PP2-56" value="" style="group" parent="1" vertex="1" connectable="0">
          <mxGeometry x="670" y="190" width="120" height="85" as="geometry" />
        </mxCell>
        <mxCell id="3cUHEKkpjPZS7k_F1PP2-57" value="" style="shape=rhombus;html=1;dashed=0;whiteSpace=wrap;perimeter=rhombusPerimeter;" parent="3cUHEKkpjPZS7k_F1PP2-56" vertex="1">
          <mxGeometry width="120" height="85" as="geometry" />
        </mxCell>
        <mxCell id="3cUHEKkpjPZS7k_F1PP2-58" value="Composta" style="text;html=1;strokeColor=none;fillColor=none;align=center;verticalAlign=middle;whiteSpace=wrap;rounded=0;fontStyle=1;fontSize=14;" parent="3cUHEKkpjPZS7k_F1PP2-56" vertex="1">
          <mxGeometry x="30" y="27.5" width="60" height="30" as="geometry" />
        </mxCell>
        <mxCell id="3cUHEKkpjPZS7k_F1PP2-59" value="" style="endArrow=none;html=1;rounded=0;entryX=0;entryY=0;entryDx=0;entryDy=0;exitX=0.5;exitY=1;exitDx=0;exitDy=0;" parent="1" target="3cUHEKkpjPZS7k_F1PP2-57" edge="1">
          <mxGeometry relative="1" as="geometry">
            <mxPoint x="640" y="155" as="sourcePoint" />
            <mxPoint x="490" y="235" as="targetPoint" />
          </mxGeometry>
        </mxCell>
        <mxCell id="3cUHEKkpjPZS7k_F1PP2-60" value="(0, n)" style="text;html=1;strokeColor=none;fillColor=none;align=center;verticalAlign=middle;whiteSpace=wrap;rounded=0;" parent="1" vertex="1">
          <mxGeometry x="560" y="151" width="30" height="15" as="geometry" />
        </mxCell>
        <mxCell id="3cUHEKkpjPZS7k_F1PP2-61" value="" style="endArrow=none;html=1;rounded=0;entryX=0;entryY=1;entryDx=0;entryDy=0;exitX=1;exitY=0;exitDx=0;exitDy=0;" parent="1" target="3cUHEKkpjPZS7k_F1PP2-57" edge="1">
          <mxGeometry relative="1" as="geometry">
            <mxPoint x="640" y="315" as="sourcePoint" />
            <mxPoint x="620" y="230" as="targetPoint" />
          </mxGeometry>
        </mxCell>
        <mxCell id="3cUHEKkpjPZS7k_F1PP2-62" value="(0, n)" style="text;html=1;strokeColor=none;fillColor=none;align=center;verticalAlign=middle;whiteSpace=wrap;rounded=0;" parent="1" vertex="1">
          <mxGeometry x="650" y="305" width="30" height="15" as="geometry" />
        </mxCell>
        <mxCell id="3cUHEKkpjPZS7k_F1PP2-71" value="" style="endArrow=none;html=1;rounded=0;entryX=1;entryY=0.5;entryDx=0;entryDy=0;exitX=0;exitY=0.5;exitDx=0;exitDy=0;" parent="1" target="3cUHEKkpjPZS7k_F1PP2-24" edge="1">
          <mxGeometry relative="1" as="geometry">
            <mxPoint x="280" y="342.5" as="sourcePoint" />
            <mxPoint x="290" y="195" as="targetPoint" />
          </mxGeometry>
        </mxCell>
        <mxCell id="3cUHEKkpjPZS7k_F1PP2-72" value="(1, n)" style="text;html=1;strokeColor=none;fillColor=none;align=center;verticalAlign=middle;whiteSpace=wrap;rounded=0;" parent="1" vertex="1">
          <mxGeometry x="215" y="320" width="30" height="10" as="geometry" />
        </mxCell>
        <mxCell id="3cUHEKkpjPZS7k_F1PP2-73" value="" style="endArrow=none;html=1;rounded=0;entryX=1;entryY=0.5;entryDx=0;entryDy=0;exitX=0;exitY=0.75;exitDx=0;exitDy=0;" parent="1" edge="1">
          <mxGeometry relative="1" as="geometry">
            <mxPoint x="540" y="352.5" as="sourcePoint" />
            <mxPoint x="400" y="342.5" as="targetPoint" />
          </mxGeometry>
        </mxCell>
        <mxCell id="3cUHEKkpjPZS7k_F1PP2-74" value="(1, 1)" style="text;html=1;strokeColor=none;fillColor=none;align=center;verticalAlign=middle;whiteSpace=wrap;rounded=0;" parent="1" vertex="1">
          <mxGeometry x="500" y="335" width="30" height="10" as="geometry" />
        </mxCell>
        <mxCell id="3cUHEKkpjPZS7k_F1PP2-75" value="" style="endArrow=none;html=1;rounded=0;entryX=1;entryY=0;entryDx=0;entryDy=0;exitX=0.25;exitY=1;exitDx=0;exitDy=0;" parent="1" source="E__VWcDHF8cWpaPQWQcF-35" target="E__VWcDHF8cWpaPQWQcF-39" edge="1">
          <mxGeometry relative="1" as="geometry">
            <mxPoint x="750" y="590" as="sourcePoint" />
            <mxPoint x="630" y="530" as="targetPoint" />
          </mxGeometry>
        </mxCell>
        <mxCell id="3cUHEKkpjPZS7k_F1PP2-76" value="" style="endArrow=none;html=1;rounded=0;entryX=0.75;entryY=1;entryDx=0;entryDy=0;exitX=0;exitY=0;exitDx=0;exitDy=0;" parent="1" source="E__VWcDHF8cWpaPQWQcF-37" target="E__VWcDHF8cWpaPQWQcF-35" edge="1">
          <mxGeometry relative="1" as="geometry">
            <mxPoint x="730" y="600" as="sourcePoint" />
            <mxPoint x="610" y="540" as="targetPoint" />
          </mxGeometry>
        </mxCell>
        <mxCell id="3cUHEKkpjPZS7k_F1PP2-77" value="" style="group" parent="1" vertex="1" connectable="0">
          <mxGeometry x="530" y="410" width="120" height="85" as="geometry" />
        </mxCell>
        <mxCell id="3cUHEKkpjPZS7k_F1PP2-78" value="" style="shape=rhombus;html=1;dashed=0;whiteSpace=wrap;perimeter=rhombusPerimeter;" parent="3cUHEKkpjPZS7k_F1PP2-77" vertex="1">
          <mxGeometry width="120" height="85" as="geometry" />
        </mxCell>
        <mxCell id="3cUHEKkpjPZS7k_F1PP2-79" value="Composta" style="text;html=1;strokeColor=none;fillColor=none;align=center;verticalAlign=middle;whiteSpace=wrap;rounded=0;fontStyle=1;fontSize=14;" parent="3cUHEKkpjPZS7k_F1PP2-77" vertex="1">
          <mxGeometry x="30" y="27.5" width="60" height="30" as="geometry" />
        </mxCell>
        <mxCell id="3cUHEKkpjPZS7k_F1PP2-80" value="" style="endArrow=none;html=1;rounded=0;entryX=0.5;entryY=0;entryDx=0;entryDy=0;exitX=0.5;exitY=1;exitDx=0;exitDy=0;" parent="1" target="3cUHEKkpjPZS7k_F1PP2-78" edge="1">
          <mxGeometry relative="1" as="geometry">
            <mxPoint x="590" y="365" as="sourcePoint" />
            <mxPoint x="590" y="521.5" as="targetPoint" />
          </mxGeometry>
        </mxCell>
        <mxCell id="3cUHEKkpjPZS7k_F1PP2-81" value="(1, n)" style="text;html=1;strokeColor=none;fillColor=none;align=center;verticalAlign=middle;whiteSpace=wrap;rounded=0;" parent="1" vertex="1">
          <mxGeometry x="590" y="370" width="30" height="15" as="geometry" />
        </mxCell>
        <mxCell id="3cUHEKkpjPZS7k_F1PP2-82" value="" style="endArrow=none;html=1;rounded=0;entryX=0.5;entryY=1;entryDx=0;entryDy=0;exitX=0.5;exitY=0;exitDx=0;exitDy=0;" parent="1" source="E__VWcDHF8cWpaPQWQcF-35" target="3cUHEKkpjPZS7k_F1PP2-78" edge="1">
          <mxGeometry relative="1" as="geometry">
            <mxPoint x="740" y="601.5" as="sourcePoint" />
            <mxPoint x="720" y="516.5" as="targetPoint" />
          </mxGeometry>
        </mxCell>
        <mxCell id="3cUHEKkpjPZS7k_F1PP2-83" value="(1, 1)" style="text;html=1;strokeColor=none;fillColor=none;align=center;verticalAlign=middle;whiteSpace=wrap;rounded=0;" parent="1" vertex="1">
          <mxGeometry x="590" y="550" width="30" height="15" as="geometry" />
        </mxCell>
        <mxCell id="3cUHEKkpjPZS7k_F1PP2-95" value="" style="group" parent="1" vertex="1" connectable="0">
          <mxGeometry x="350" y="125" width="120" height="85" as="geometry" />
        </mxCell>
        <mxCell id="3cUHEKkpjPZS7k_F1PP2-96" value="" style="shape=rhombus;html=1;dashed=0;whiteSpace=wrap;perimeter=rhombusPerimeter;" parent="3cUHEKkpjPZS7k_F1PP2-95" vertex="1">
          <mxGeometry width="120" height="85" as="geometry" />
        </mxCell>
        <mxCell id="3cUHEKkpjPZS7k_F1PP2-97" value="Condivisa" style="text;html=1;strokeColor=none;fillColor=none;align=center;verticalAlign=middle;whiteSpace=wrap;rounded=0;fontStyle=1;fontSize=14;" parent="3cUHEKkpjPZS7k_F1PP2-95" vertex="1">
          <mxGeometry x="30" y="27.5" width="60" height="30" as="geometry" />
        </mxCell>
        <mxCell id="3cUHEKkpjPZS7k_F1PP2-98" value="" style="endArrow=none;html=1;rounded=0;entryX=1;entryY=0.75;entryDx=0;entryDy=0;exitX=0;exitY=0.5;exitDx=0;exitDy=0;" parent="1" source="3cUHEKkpjPZS7k_F1PP2-96" target="E__VWcDHF8cWpaPQWQcF-8" edge="1">
          <mxGeometry relative="1" as="geometry">
            <mxPoint x="380" y="330" as="sourcePoint" />
            <mxPoint x="300" y="241" as="targetPoint" />
          </mxGeometry>
        </mxCell>
        <mxCell id="3cUHEKkpjPZS7k_F1PP2-99" value="(0, n)" style="text;html=1;strokeColor=none;fillColor=none;align=center;verticalAlign=middle;whiteSpace=wrap;rounded=0;" parent="1" vertex="1">
          <mxGeometry x="185" y="105" width="30" height="10" as="geometry" />
        </mxCell>
        <mxCell id="3cUHEKkpjPZS7k_F1PP2-100" value="" style="endArrow=none;html=1;rounded=0;entryX=0;entryY=0.75;entryDx=0;entryDy=0;exitX=1;exitY=0.5;exitDx=0;exitDy=0;" parent="1" source="3cUHEKkpjPZS7k_F1PP2-96" edge="1">
          <mxGeometry relative="1" as="geometry">
            <mxPoint x="830" y="283" as="sourcePoint" />
            <mxPoint x="590" y="142.5" as="targetPoint" />
          </mxGeometry>
        </mxCell>
        <mxCell id="3cUHEKkpjPZS7k_F1PP2-101" value="(1, n)" style="text;html=1;strokeColor=none;fillColor=none;align=center;verticalAlign=middle;whiteSpace=wrap;rounded=0;" parent="1" vertex="1">
          <mxGeometry x="665" y="160" width="30" height="15" as="geometry" />
        </mxCell>
        <mxCell id="3cUHEKkpjPZS7k_F1PP2-102" value="" style="endArrow=none;html=1;rounded=0;entryX=1;entryY=0.5;entryDx=0;entryDy=0;exitX=0;exitY=0.5;exitDx=0;exitDy=0;" parent="1" source="E__VWcDHF8cWpaPQWQcF-49" edge="1">
          <mxGeometry relative="1" as="geometry">
            <mxPoint x="750" y="70" as="sourcePoint" />
            <mxPoint x="690" y="130" as="targetPoint" />
          </mxGeometry>
        </mxCell>
        <mxCell id="3cUHEKkpjPZS7k_F1PP2-113" value="immagine" style="ellipse;shape=doubleEllipse;margin=3;whiteSpace=wrap;html=1;align=center;" parent="1" vertex="1">
          <mxGeometry x="870" y="275" width="100" height="40" as="geometry" />
        </mxCell>
        <mxCell id="3cUHEKkpjPZS7k_F1PP2-114" value="etichetta" style="ellipse;whiteSpace=wrap;html=1;align=center;" parent="1" vertex="1">
          <mxGeometry x="870" y="335" width="100" height="40" as="geometry" />
        </mxCell>
        <mxCell id="3cUHEKkpjPZS7k_F1PP2-115" value="" style="endArrow=none;html=1;rounded=0;entryX=0.5;entryY=0;entryDx=0;entryDy=0;exitX=0.5;exitY=1;exitDx=0;exitDy=0;" parent="1" source="3cUHEKkpjPZS7k_F1PP2-113" target="3cUHEKkpjPZS7k_F1PP2-114" edge="1">
          <mxGeometry relative="1" as="geometry">
            <mxPoint x="860" y="375" as="sourcePoint" />
            <mxPoint x="780" y="386" as="targetPoint" />
          </mxGeometry>
        </mxCell>
        <mxCell id="3cUHEKkpjPZS7k_F1PP2-116" value="casa editrice" style="ellipse;whiteSpace=wrap;html=1;align=center;" parent="1" vertex="1">
          <mxGeometry x="670" y="430" width="100" height="40" as="geometry" />
        </mxCell>
        <mxCell id="3cUHEKkpjPZS7k_F1PP2-117" value="" style="endArrow=none;html=1;rounded=0;entryX=0;entryY=0;entryDx=0;entryDy=0;exitX=0.75;exitY=1;exitDx=0;exitDy=0;" parent="1" target="3cUHEKkpjPZS7k_F1PP2-116" edge="1">
          <mxGeometry relative="1" as="geometry">
            <mxPoint x="615" y="365" as="sourcePoint" />
            <mxPoint x="890" y="431" as="targetPoint" />
          </mxGeometry>
        </mxCell>
        <mxCell id="3cUHEKkpjPZS7k_F1PP2-118" value="" style="group" parent="1" vertex="1" connectable="0">
          <mxGeometry x="340" y="430" width="120" height="85" as="geometry" />
        </mxCell>
        <mxCell id="3cUHEKkpjPZS7k_F1PP2-119" value="" style="shape=rhombus;html=1;dashed=0;whiteSpace=wrap;perimeter=rhombusPerimeter;" parent="3cUHEKkpjPZS7k_F1PP2-118" vertex="1">
          <mxGeometry width="120" height="85" as="geometry" />
        </mxCell>
        <mxCell id="3cUHEKkpjPZS7k_F1PP2-120" value="Contributore" style="text;html=1;strokeColor=none;fillColor=none;align=center;verticalAlign=middle;whiteSpace=wrap;rounded=0;fontStyle=1;fontSize=14;" parent="3cUHEKkpjPZS7k_F1PP2-118" vertex="1">
          <mxGeometry x="30" y="27.5" width="60" height="30" as="geometry" />
        </mxCell>
        <mxCell id="3cUHEKkpjPZS7k_F1PP2-121" value="" style="endArrow=none;html=1;rounded=0;entryX=1;entryY=0.75;entryDx=0;entryDy=0;exitX=0;exitY=0;exitDx=0;exitDy=0;" parent="1" source="3cUHEKkpjPZS7k_F1PP2-119" target="3cUHEKkpjPZS7k_F1PP2-24" edge="1">
          <mxGeometry relative="1" as="geometry">
            <mxPoint x="350" y="420" as="sourcePoint" />
            <mxPoint x="280" y="417" as="targetPoint" />
          </mxGeometry>
        </mxCell>
        <mxCell id="3cUHEKkpjPZS7k_F1PP2-123" value="" style="endArrow=none;html=1;rounded=0;entryX=1;entryY=1;entryDx=0;entryDy=0;exitX=0.25;exitY=0;exitDx=0;exitDy=0;" parent="1" source="E__VWcDHF8cWpaPQWQcF-35" target="3cUHEKkpjPZS7k_F1PP2-119" edge="1">
          <mxGeometry relative="1" as="geometry">
            <mxPoint x="280" y="550" as="sourcePoint" />
            <mxPoint x="210" y="547" as="targetPoint" />
          </mxGeometry>
        </mxCell>
        <mxCell id="3cUHEKkpjPZS7k_F1PP2-124" value="(0, n)" style="text;html=1;strokeColor=none;fillColor=none;align=center;verticalAlign=middle;whiteSpace=wrap;rounded=0;" parent="1" vertex="1">
          <mxGeometry x="220" y="350" width="30" height="10" as="geometry" />
        </mxCell>
        <mxCell id="3cUHEKkpjPZS7k_F1PP2-125" value="(0, n)" style="text;html=1;strokeColor=none;fillColor=none;align=center;verticalAlign=middle;whiteSpace=wrap;rounded=0;" parent="1" vertex="1">
          <mxGeometry x="510" y="560" width="30" height="10" as="geometry" />
        </mxCell>
        <mxCell id="3cUHEKkpjPZS7k_F1PP2-126" value="quantitÃ " style="ellipse;whiteSpace=wrap;html=1;align=center;" parent="1" vertex="1">
          <mxGeometry x="830" y="220" width="100" height="40" as="geometry" />
        </mxCell>
        <mxCell id="3cUHEKkpjPZS7k_F1PP2-127" value="" style="endArrow=none;html=1;rounded=0;entryX=0;entryY=0.5;entryDx=0;entryDy=0;exitX=1;exitY=0.5;exitDx=0;exitDy=0;" parent="1" source="3cUHEKkpjPZS7k_F1PP2-57" target="3cUHEKkpjPZS7k_F1PP2-126" edge="1">
          <mxGeometry relative="1" as="geometry">
            <mxPoint x="820" y="290" as="sourcePoint" />
            <mxPoint x="820" y="315" as="targetPoint" />
          </mxGeometry>
        </mxCell>
        <mxCell id="3cUHEKkpjPZS7k_F1PP2-128" value="" style="endArrow=none;html=1;rounded=0;entryX=0;entryY=0.5;entryDx=0;entryDy=0;exitX=1;exitY=0.25;exitDx=0;exitDy=0;" parent="1" target="3cUHEKkpjPZS7k_F1PP2-113" edge="1">
          <mxGeometry relative="1" as="geometry">
            <mxPoint x="640" y="327.5" as="sourcePoint" />
            <mxPoint x="980" y="381" as="targetPoint" />
          </mxGeometry>
        </mxCell>
        <mxCell id="3cUHEKkpjPZS7k_F1PP2-130" value="&lt;b&gt;&lt;font style=&quot;font-size: 14px;&quot;&gt;Disco&lt;/font&gt;&lt;/b&gt;" style="shape=ext;margin=3;double=1;whiteSpace=wrap;html=1;align=center;" parent="1" vertex="1">
          <mxGeometry x="540" y="315" width="100" height="51" as="geometry" />
        </mxCell>
        <mxCell id="3cUHEKkpjPZS7k_F1PP2-131" value="" style="group" parent="1" vertex="1" connectable="0">
          <mxGeometry x="280" y="300" width="120" height="85" as="geometry" />
        </mxCell>
        <mxCell id="3cUHEKkpjPZS7k_F1PP2-132" value="" style="shape=rhombus;html=1;dashed=0;whiteSpace=wrap;perimeter=rhombusPerimeter;" parent="3cUHEKkpjPZS7k_F1PP2-131" vertex="1">
          <mxGeometry width="120" height="85" as="geometry" />
        </mxCell>
        <mxCell id="3cUHEKkpjPZS7k_F1PP2-133" value="" style="rhombus;whiteSpace=wrap;html=1;" parent="3cUHEKkpjPZS7k_F1PP2-131" vertex="1">
          <mxGeometry x="10" y="7.5" width="100" height="70" as="geometry" />
        </mxCell>
        <mxCell id="3cUHEKkpjPZS7k_F1PP2-134" value="Autore" style="text;html=1;strokeColor=none;fillColor=none;align=center;verticalAlign=middle;whiteSpace=wrap;rounded=0;fontStyle=1;fontSize=14;" parent="3cUHEKkpjPZS7k_F1PP2-131" vertex="1">
          <mxGeometry x="30" y="27.5" width="60" height="30" as="geometry" />
        </mxCell>
        <mxCell id="3cUHEKkpjPZS7k_F1PP2-135" value="" style="group" parent="1" vertex="1" connectable="0">
          <mxGeometry x="350" y="30" width="120" height="85" as="geometry" />
        </mxCell>
        <mxCell id="3cUHEKkpjPZS7k_F1PP2-136" value="" style="shape=rhombus;html=1;dashed=0;whiteSpace=wrap;perimeter=rhombusPerimeter;" parent="3cUHEKkpjPZS7k_F1PP2-135" vertex="1">
          <mxGeometry width="120" height="85" as="geometry" />
        </mxCell>
        <mxCell id="3cUHEKkpjPZS7k_F1PP2-137" value="" style="rhombus;whiteSpace=wrap;html=1;" parent="3cUHEKkpjPZS7k_F1PP2-135" vertex="1">
          <mxGeometry x="10" y="7.5" width="100" height="70" as="geometry" />
        </mxCell>
        <mxCell id="3cUHEKkpjPZS7k_F1PP2-138" value="Possiede" style="text;html=1;strokeColor=none;fillColor=none;align=center;verticalAlign=middle;whiteSpace=wrap;rounded=0;fontStyle=1;fontSize=14;" parent="3cUHEKkpjPZS7k_F1PP2-135" vertex="1">
          <mxGeometry x="30" y="27.5" width="60" height="30" as="geometry" />
        </mxCell>
        <mxCell id="3cUHEKkpjPZS7k_F1PP2-139" value="&lt;b&gt;&lt;font style=&quot;font-size: 14px;&quot;&gt;Collezione&lt;/font&gt;&lt;/b&gt;" style="shape=ext;margin=3;double=1;whiteSpace=wrap;html=1;align=center;" parent="1" vertex="1">
          <mxGeometry x="590" y="100" width="100" height="51" as="geometry" />
        </mxCell>
      </root>
    </mxGraphModel>
  </diagram>
</mxfile>
